<mxfile host="app.diagrams.net" agent="Mozilla/5.0 (Macintosh; Intel Mac OS X 10_15_7) AppleWebKit/537.36 (KHTML, like Gecko) Chrome/139.0.0.0 Safari/537.36" version="28.0.7">
  <diagram name="第 1 页" id="1E003h5TcaocSrITGSxw">
    <mxGraphModel dx="1634" dy="305" grid="0" gridSize="10" guides="1" tooltips="1" connect="1" arrows="1" fold="1" page="0" pageScale="1" pageWidth="827" pageHeight="1169" math="0" shadow="0">
      <root>
        <mxCell id="0" />
        <mxCell id="1" parent="0" />
        <mxCell id="4XPeKo9X0DsGih_3RS7q-1" value="&lt;div style=&quot;color: rgb(19, 20, 22); font-size: 14px; line-height: 21px; white-space: pre;&quot;&gt;reco_algorithm&lt;span style=&quot;color: #000000;&quot;&gt;.&lt;/span&gt;kuaiying_ks_emb_u2u_7d&lt;/div&gt;" style="rounded=0;whiteSpace=wrap;html=1;fillColor=#d5e8d4;strokeColor=#000000;labelBackgroundColor=none;fontFamily=Verdana;" vertex="1" parent="1">
          <mxGeometry x="-29" y="468" width="348" height="38" as="geometry" />
        </mxCell>
        <mxCell id="4XPeKo9X0DsGih_3RS7q-2" value="&lt;div style=&quot;color: rgb(19, 20, 22); font-size: 14px; line-height: 21px; white-space: pre;&quot;&gt;reco_algorithm&lt;span style=&quot;color: #000000;&quot;&gt;.&lt;/span&gt;kuaiying_ks_emb_u2u_7d&lt;/div&gt;" style="rounded=0;whiteSpace=wrap;html=1;fillColor=#d5e8d4;strokeColor=#000000;labelBackgroundColor=none;fontFamily=Verdana;" vertex="1" parent="1">
          <mxGeometry x="-29" y="550" width="348" height="38" as="geometry" />
        </mxCell>
      </root>
    </mxGraphModel>
  </diagram>
</mxfile>
